<svg class="cookies-eu-accept" id="acceptCookies" src="https://cdn-icons-png.flaticon.com/512/66/66936.png" onclick="cookies_eu_accept()" width="50px" height="50px"
    xmlns="http://www.w3.org/2000/svg" viewBox="0 0 29.39 29.39">
    <path d="M21.77,9.9c-.14-.14-.36-.14-.5,0l-8.85,8.85-4.3-4.3c-.07-.07-.15-.1-.25-.1s-.18,.04-.25,.1c-.07,.07-.1,.15-.1,.25s.04,.18,.1,.25l4.56,4.55c.11,.11,.26,.23,.49,0l9.11-9.11c.14-.14.14-.36,0-.5Z"></path>
    <path d="M14.7,0C6.59,0,0,6.59,0,14.7s6.59,14.7,14.7,14.7,14.7-6.59,14.7-14.7S22.8,0,14.7,0Zm0,28.69C6.98,28.69,.7,22.41,.7,14.7S6.98,.7,14.7,.7s14,6.28,14,13.99-6.28,14-14,14Z"></path>
</svg>